<svg width="405" height="390" viewBox="0 0 405 390" fill="none" xmlns="http://www.w3.org/2000/svg">
<path fill-rule="evenodd" clip-rule="evenodd" d="M309.677 -280.221C385.031 -229.346 287.796 -84.8441 341.795 -11.6968C368.509 24.4901 408.068 -84.7321 453.028 -86.0396C478.88 -86.7914 476.326 -40.3814 484.509 -15.847C492.07 6.82156 512.242 33.3278 499.606 53.6094C481.969 81.9153 436.651 77.7704 412.109 100.353C401.575 110.047 399.278 128.372 403.491 142.054C427.957 221.498 512.834 290.184 495.614 371.508C486.027 416.785 403.426 361.935 360.699 344.15C326.114 329.754 287.453 311.683 271.018 278.02C251.437 237.915 308.262 143.085 263.696 145.472C167.689 150.614 113.995 292.849 17.8589 291.58C-33.976 290.895 41.89 191.963 58.2074 142.758C68.7159 111.07 68.793 68.6526 97.4609 51.5441C138.283 27.1824 207.215 71.7599 237.948 35.4921C260.858 8.45721 185.49 -23.9126 191.06 -58.9085C194.483 -80.4165 244.519 -51.2321 254.807 -70.4275C289.247 -134.684 249.255 -321.016 309.677 -280.221Z" fill="#F60000"/>
</svg>
