<svg width="343" height="418" viewBox="0 0 343 418" fill="none" xmlns="http://www.w3.org/2000/svg">
<path fill-rule="evenodd" clip-rule="evenodd" d="M148.677 5.77881C224.031 56.6544 126.796 201.156 180.795 274.303C207.509 310.49 247.068 201.268 292.028 199.96C317.88 199.209 315.326 245.619 323.509 270.153C331.07 292.822 351.242 319.328 338.606 339.609C320.969 367.915 275.651 363.77 251.109 386.353C240.575 396.047 238.278 414.372 242.491 428.054C266.957 507.498 351.834 576.184 334.614 657.508C325.027 702.785 242.426 647.935 199.699 630.15C165.114 615.754 126.453 597.683 110.018 564.02C90.4365 523.915 147.262 429.085 102.696 431.472C6.68878 436.614 -47.0051 578.849 -143.141 577.58C-194.976 576.895 -119.11 477.963 -102.793 428.758C-92.2841 397.07 -92.207 354.653 -63.5391 337.544C-22.7173 313.182 46.2147 357.76 76.9484 321.492C99.8581 294.457 24.4895 262.087 30.0596 227.091C33.483 205.584 83.5189 234.768 93.8071 215.573C128.247 151.316 88.2552 -35.0157 148.677 5.77881Z" fill="#F60000"/>
</svg>
