<svg width="20" height="20" viewBox="0 0 20 20" fill="none" xmlns="http://www.w3.org/2000/svg">
<path d="M5.00016 1.66666C4.07516 1.66666 3.3335 2.40832 3.3335 3.33332V16.6667C3.3335 17.1087 3.50909 17.5326 3.82165 17.8452C4.13421 18.1577 4.55814 18.3333 5.00016 18.3333H8.3335V16.7417L10.0752 15H5.00016V13.3333H11.7418L13.4085 11.6667H5.00016V9.99999H15.0752L16.6668 8.40832V6.66666L11.6668 1.66666H5.00016ZM10.8335 2.91666L15.4168 7.49999H10.8335V2.91666ZM16.7918 10.8333C16.7302 10.832 16.6688 10.8431 16.6116 10.866C16.5543 10.8889 16.5022 10.9231 16.4585 10.9667L15.6085 11.8167L17.3502 13.55L18.2002 12.7083C18.3752 12.525 18.3752 12.225 18.2002 12.05L17.1168 10.9667C17.0743 10.9239 17.0236 10.8901 16.9678 10.8672C16.912 10.8443 16.8521 10.8328 16.7918 10.8333ZM15.1168 12.3083L10.0002 17.4333V19.1667H11.7335L16.8585 14.0417L15.1168 12.3083Z" fill="black"/>
</svg>
