<svg width="20" height="20" viewBox="0 0 20 20" fill="none" xmlns="http://www.w3.org/2000/svg">
<path d="M12.2915 12.5C13.0965 12.5 13.7498 13.1533 13.7498 13.9583L13.749 14.76C13.8465 16.585 12.4898 17.5075 10.0557 17.5075C7.63067 17.5075 6.24984 16.5992 6.24984 14.7917V13.9583C6.24984 13.1533 6.90317 12.5 7.70817 12.5H12.2915ZM3.12484 8.33333H6.7715C6.6261 8.89916 6.63169 9.49323 6.78772 10.0562C6.94375 10.6192 7.24475 11.1314 7.66067 11.5417L7.79567 11.6675L7.70817 11.6667C7.20803 11.6665 6.72156 11.8299 6.32298 12.1321C5.92441 12.4342 5.63562 12.8584 5.50067 13.34L5.47234 13.3408C3.04734 13.3408 1.6665 12.4325 1.6665 10.625V9.79167C1.6665 8.98667 2.31984 8.33333 3.12484 8.33333ZM16.8748 8.33333C17.6798 8.33333 18.3332 8.98667 18.3332 9.79167L18.3323 10.5933C18.4298 12.4183 17.0732 13.3408 14.639 13.3408L14.4982 13.3392C14.3701 12.8853 14.1053 12.4818 13.7399 12.1836C13.3744 11.8854 12.9261 11.707 12.4557 11.6725L12.2915 11.6667L12.204 11.6675C12.6666 11.2612 13.0073 10.7344 13.1881 10.1459C13.369 9.55732 13.3828 8.93013 13.2282 8.33417L16.8748 8.33333ZM9.99984 6.66667C10.3281 6.66667 10.6532 6.73133 10.9565 6.85697C11.2599 6.9826 11.5355 7.16675 11.7676 7.3989C11.9998 7.63105 12.1839 7.90664 12.3095 8.20996C12.4352 8.51327 12.4998 8.83836 12.4998 9.16667C12.4998 9.49497 12.4352 9.82006 12.3095 10.1234C12.1839 10.4267 11.9998 10.7023 11.7676 10.9344C11.5355 11.1666 11.2599 11.3507 10.9565 11.4764C10.6532 11.602 10.3281 11.6667 9.99984 11.6667C9.3368 11.6667 8.70091 11.4033 8.23207 10.9344C7.76323 10.4656 7.49984 9.82971 7.49984 9.16667C7.49984 8.50363 7.76323 7.86774 8.23207 7.3989C8.70091 6.93006 9.3368 6.66667 9.99984 6.66667ZM5.4165 2.5C6.07955 2.5 6.71543 2.76339 7.18427 3.23223C7.65311 3.70107 7.9165 4.33696 7.9165 5C7.9165 5.66304 7.65311 6.29893 7.18427 6.76777C6.71543 7.23661 6.07955 7.5 5.4165 7.5C4.75346 7.5 4.11758 7.23661 3.64874 6.76777C3.1799 6.29893 2.9165 5.66304 2.9165 5C2.9165 4.33696 3.1799 3.70107 3.64874 3.23223C4.11758 2.76339 4.75346 2.5 5.4165 2.5ZM14.5832 2.5C15.2462 2.5 15.8821 2.76339 16.3509 3.23223C16.8198 3.70107 17.0832 4.33696 17.0832 5C17.0832 5.66304 16.8198 6.29893 16.3509 6.76777C15.8821 7.23661 15.2462 7.5 14.5832 7.5C13.9201 7.5 13.2842 7.23661 12.8154 6.76777C12.3466 6.29893 12.0832 5.66304 12.0832 5C12.0832 4.33696 12.3466 3.70107 12.8154 3.23223C13.2842 2.76339 13.9201 2.5 14.5832 2.5Z" fill="black"/>
</svg>
