<svg width="0" height="0" class="hidden">
  <symbol fill="none" xmlns="http://www.w3.org/2000/svg" viewBox="0 0 19 36" id="logo">
    <path fill-rule="evenodd" clip-rule="evenodd" d="M10.2757 28.4043C10.7564 28.4043 11.2173 28.7663 11.5571 29.4105C11.8969 30.0548 12.0879 30.9287 12.0879 31.8398C12.0879 32.751 11.8969 33.6249 11.5571 34.2691C11.2173 34.9134 10.7564 35.2754 10.2757 35.2754C9.79514 35.2754 9.33422 34.9134 8.99439 34.2691C8.65455 33.6249 8.46363 32.751 8.46363 31.8398C8.46363 30.9287 8.65455 30.0548 8.99439 29.4105C9.33422 28.7663 9.79514 28.4043 10.2757 28.4043ZM4.60472 23.251C5.20547 23.251 5.78162 23.7034 6.20642 24.5088C6.63122 25.3141 6.86987 26.4065 6.86987 27.5454C6.86987 28.6844 6.63122 29.7767 6.20642 30.582C5.78162 31.3874 5.20547 31.8398 4.60472 31.8398C4.00396 31.8398 3.42781 31.3874 3.00301 30.582C2.57821 29.7767 2.33956 28.6844 2.33956 27.5454C2.33956 26.4065 2.57821 25.3141 3.00301 24.5088C3.42781 23.7034 4.00396 23.251 4.60472 23.251ZM15.0951 24.1099C15.5757 24.1099 16.0366 24.4718 16.3764 25.1161C16.7163 25.7604 16.9072 26.6342 16.9072 27.5454C16.9072 28.4566 16.7163 29.3304 16.3764 29.9747C16.0366 30.619 15.5757 30.981 15.0951 30.981C14.6145 30.981 14.1536 30.619 13.8137 29.9747C13.4739 29.3304 13.283 28.4566 13.283 27.5454C13.283 26.6342 13.4739 25.7604 13.8137 25.1161C14.1536 24.4718 14.6145 24.1099 15.0951 24.1099ZM17.0712 16.9279C17.4317 16.9279 17.7773 17.1993 18.0322 17.6825C18.2871 18.1658 18.4303 18.8211 18.4303 19.5045C18.4303 20.1879 18.2871 20.8433 18.0322 21.3265C17.7773 21.8097 17.4317 22.0812 17.0712 22.0812C16.7107 22.0812 16.3651 21.8097 16.1102 21.3265C15.8553 20.8433 15.7121 20.1879 15.7121 19.5045C15.7121 18.8211 15.8553 18.1658 16.1102 17.6825C16.3651 17.1993 16.7107 16.9279 17.0712 16.9279ZM2.57423 11.2266C3.17499 11.2266 3.75114 11.679 4.17594 12.4844C4.60074 13.2897 4.83939 14.382 4.83939 15.521C4.83939 16.66 4.60074 17.7523 4.17594 18.5576C3.75114 19.363 3.17499 19.8154 2.57423 19.8154C1.97348 19.8154 1.39733 19.363 0.97253 18.5576C0.547731 17.7523 0.309082 16.66 0.309082 15.521C0.309082 14.382 0.547731 13.2897 0.97253 12.4844C1.39733 11.679 1.97348 11.2266 2.57423 11.2266ZM16.4243 9.86437C16.6646 9.86437 16.895 10.0453 17.065 10.3675C17.2349 10.6896 17.3303 11.1266 17.3303 11.5821C17.3303 12.0377 17.2349 12.4746 17.065 12.7968C16.895 13.1189 16.6646 13.2999 16.4243 13.2999C16.184 13.2999 15.9535 13.1189 15.7836 12.7968C15.6137 12.4746 15.5182 12.0377 15.5182 11.5821C15.5182 11.1266 15.6137 10.6896 15.7836 10.3675C15.9535 10.0453 16.184 9.86437 16.4243 9.86437ZM7.55757 0.919922C8.27847 0.919922 8.96985 1.46286 9.47961 2.42929C9.98937 3.39573 10.2757 4.7065 10.2757 6.07324C10.2757 7.43999 9.98937 8.75075 9.47961 9.71719C8.96985 10.6836 8.27847 11.2266 7.55757 11.2266C6.83666 11.2266 6.14528 10.6836 5.63552 9.71719C5.12576 8.75075 4.83939 7.43999 4.83939 6.07324C4.83939 4.7065 5.12576 3.39573 5.63552 2.42929C6.14528 1.46286 6.83666 0.919922 7.55757 0.919922ZM14.353 6.07324C14.4732 6.07324 14.5884 6.16373 14.6734 6.3248C14.7583 6.48588 14.8061 6.70434 14.8061 6.93213C14.8061 7.15992 14.7583 7.37838 14.6734 7.53945C14.5884 7.70053 14.4732 7.79102 14.353 7.79102C14.2329 7.79102 14.1176 7.70053 14.0327 7.53945C13.9477 7.37838 13.9 7.15992 13.9 6.93213C13.9 6.70434 13.9477 6.48588 14.0327 6.3248C14.1176 6.16373 14.2329 6.07324 14.353 6.07324Z" fill="white"></path>
  </symbol>
</svg>