<svg width="20" height="20" viewBox="0 0 20 20" fill="none" xmlns="http://www.w3.org/2000/svg">
<path d="M11.6663 6.66665H3.88856C3.74122 6.66665 3.59991 6.60811 3.49573 6.50393C3.39154 6.39974 3.33301 6.25843 3.33301 6.11109V3.88887C3.33301 3.74153 3.39154 3.60022 3.49573 3.49603C3.59991 3.39184 3.74122 3.33331 3.88856 3.33331H11.6663C11.8137 3.33331 11.955 3.39184 12.0592 3.49603C12.1634 3.60022 12.2219 3.74153 12.2219 3.88887V6.11109C12.2219 6.25843 12.1634 6.39974 12.0592 6.50393C11.955 6.60811 11.8137 6.66665 11.6663 6.66665ZM4.44412 5.55554H11.1108V4.41109H4.44412V5.55554Z" fill="black"/>
<path d="M11.6663 7.8222H3.88856C3.74122 7.8222 3.59991 7.88074 3.49573 7.98492C3.39154 8.08911 3.33301 8.23042 3.33301 8.37776V10.5555C3.33301 10.7029 3.39154 10.8442 3.49573 10.9484C3.59991 11.0526 3.74122 11.1111 3.88856 11.1111H10.1997L12.2219 9.05554V8.37776C12.2219 8.23042 12.1634 8.08911 12.0592 7.98492C11.955 7.88074 11.8137 7.8222 11.6663 7.8222ZM11.1108 9.99998H4.44412V8.88887H11.1108V9.99998Z" fill="black"/>
<path d="M6.14466 17.5055V17.4722L6.32244 16.7H2.22244V2.2222H13.3336V7.91664L14.4447 6.86664V1.66664C14.4447 1.5193 14.3861 1.37799 14.2819 1.2738C14.1778 1.16962 14.0364 1.11108 13.8891 1.11108H1.66688C1.51954 1.11108 1.37823 1.16962 1.27405 1.2738C1.16986 1.37799 1.11133 1.5193 1.11133 1.66664V17.2222C1.11133 17.3695 1.16986 17.5108 1.27405 17.615C1.37823 17.7192 1.51954 17.7778 1.66688 17.7778H6.11133C6.11591 17.6863 6.12705 17.5954 6.14466 17.5055Z" fill="black"/>
<path d="M12.2224 10.65L11.7891 11.0889C11.8966 11.0668 11.9951 11.0132 12.0722 10.9351C12.1494 10.857 12.2016 10.7578 12.2224 10.65Z" fill="black"/>
<path d="M3.33301 14.9667C3.33301 15.114 3.39154 15.2553 3.49573 15.3595C3.59991 15.4637 3.74122 15.5222 3.88856 15.5222H6.57745L6.74412 14.8L6.81634 14.4945V14.4667H4.44412V13.3333H7.96634L9.07745 12.2222H3.88856C3.74122 12.2222 3.59991 12.2808 3.49573 12.3849C3.39154 12.4891 3.33301 12.6304 3.33301 12.7778V14.9667Z" fill="black"/>
<path d="M18.6055 9.2611L16.7332 7.38888C16.6502 7.30556 16.5514 7.23946 16.4428 7.19436C16.3341 7.14925 16.2176 7.12604 16.0999 7.12604C15.9822 7.12604 15.8657 7.14925 15.7571 7.19436C15.6484 7.23946 15.5497 7.30556 15.4666 7.38888L7.84991 15.05L7.22213 17.7222C7.19863 17.8375 7.1981 17.9563 7.22058 18.0718C7.24305 18.1873 7.28809 18.2972 7.35312 18.3952C7.41814 18.4933 7.50187 18.5775 7.59951 18.6432C7.69716 18.7088 7.80679 18.7546 7.92213 18.7778C7.97939 18.7835 8.03709 18.7835 8.09435 18.7778C8.16242 18.7889 8.23184 18.7889 8.29991 18.7778L10.9944 18.1833L18.6055 10.5555C18.6886 10.4729 18.7546 10.3747 18.7996 10.2665C18.8447 10.1583 18.8678 10.0422 18.8678 9.92499C18.8678 9.80778 18.8447 9.69173 18.7996 9.58351C18.7546 9.47529 18.6886 9.37705 18.6055 9.29444V9.2611ZM10.4277 17.1722L8.39435 17.6222L8.8888 15.6055L14.5999 9.83333L16.1666 11.4L10.4277 17.1722ZM16.7944 10.7722L15.2277 9.20555L16.111 8.33333L17.6888 9.9111L16.7944 10.7722Z" fill="black"/>
</svg>
