<svg width="20" height="20" viewBox="0 0 20 20" fill="none" xmlns="http://www.w3.org/2000/svg">
<path d="M15.833 5.41665C14.458 5.41665 13.333 5.04165 13.333 4.58331V5.41665C13.333 5.87498 14.458 6.24998 15.833 6.24998C17.208 6.24998 18.333 5.87498 18.333 5.41665V4.58331C18.333 5.04165 17.208 5.41665 15.833 5.41665Z" fill="#FFA000"/>
<path d="M15.833 4.16665C14.458 4.16665 13.333 3.79165 13.333 3.33331V4.16665C13.333 4.62498 14.458 4.99998 15.833 4.99998C17.208 4.99998 18.333 4.62498 18.333 4.16665V3.33331C18.333 3.79165 17.208 4.16665 15.833 4.16665ZM15.833 6.66665C14.458 6.66665 13.333 6.29165 13.333 5.83331V6.66665C13.333 7.12498 14.458 7.49998 15.833 7.49998C17.208 7.49998 18.333 7.12498 18.333 6.66665V5.83331C18.333 6.29165 17.208 6.66665 15.833 6.66665Z" fill="#FFA000"/>
<path d="M15.833 7.91665C14.458 7.91665 13.333 7.54165 13.333 7.08331V7.91665C13.333 8.37498 14.458 8.74998 15.833 8.74998C17.208 8.74998 18.333 8.37498 18.333 7.91665V7.08331C18.333 7.54165 17.208 7.91665 15.833 7.91665Z" fill="#FFA000"/>
<path d="M15.833 9.16665C14.458 9.16665 13.333 8.79165 13.333 8.33331V9.16665C13.333 9.62498 14.458 9.99998 15.833 9.99998C17.208 9.99998 18.333 9.62498 18.333 9.16665V8.33331C18.333 8.79165 17.208 9.16665 15.833 9.16665Z" fill="#FFA000"/>
<path d="M15.833 10.4166C14.458 10.4166 13.333 10.0416 13.333 9.58331V10.4166C13.333 10.875 14.458 11.25 15.833 11.25C17.208 11.25 18.333 10.875 18.333 10.4166V9.58331C18.333 10.0416 17.208 10.4166 15.833 10.4166Z" fill="#FFA000"/>
<path d="M15.833 11.6666C14.458 11.6666 13.333 11.2916 13.333 10.8333V11.6666C13.333 12.125 14.458 12.5 15.833 12.5C17.208 12.5 18.333 12.125 18.333 11.6666V10.8333C18.333 11.2916 17.208 11.6666 15.833 11.6666Z" fill="#FFA000"/>
<path d="M15.833 12.9166C14.458 12.9166 13.333 12.5416 13.333 12.0833V12.9166C13.333 13.375 14.458 13.75 15.833 13.75C17.208 13.75 18.333 13.375 18.333 12.9166V12.0833C18.333 12.5416 17.208 12.9166 15.833 12.9166Z" fill="#FFA000"/>
<path d="M15.833 14.1666C14.458 14.1666 13.333 13.7916 13.333 13.3333V14.1666C13.333 14.625 14.458 15 15.833 15C17.208 15 18.333 14.625 18.333 14.1666V13.3333C18.333 13.7916 17.208 14.1666 15.833 14.1666Z" fill="#FFA000"/>
<path d="M15.833 15.4166C14.458 15.4166 13.333 15.0416 13.333 14.5833V15.4166C13.333 15.875 14.458 16.25 15.833 16.25C17.208 16.25 18.333 15.875 18.333 15.4166V14.5833C18.333 15.0416 17.208 15.4166 15.833 15.4166Z" fill="#FFA000"/>
<path d="M15.833 16.6666C14.458 16.6666 13.333 16.2916 13.333 15.8333V16.6666C13.333 17.125 14.458 17.5 15.833 17.5C17.208 17.5 18.333 17.125 18.333 16.6666V15.8333C18.333 16.2916 17.208 16.6666 15.833 16.6666Z" fill="#FFA000"/>
<path d="M15.833 4.16667C17.2137 4.16667 18.333 3.79357 18.333 3.33333C18.333 2.8731 17.2137 2.5 15.833 2.5C14.4523 2.5 13.333 2.8731 13.333 3.33333C13.333 3.79357 14.4523 4.16667 15.833 4.16667Z" fill="#FFC107"/>
<path d="M15.833 5C14.6663 5 13.708 4.75 13.4163 4.375C13.3747 4.45833 13.333 4.5 13.333 4.58333C13.333 5.04167 14.458 5.41667 15.833 5.41667C17.208 5.41667 18.333 5.04167 18.333 4.58333C18.333 4.5 18.2913 4.45833 18.2497 4.375C17.958 4.75 16.9997 5 15.833 5ZM15.833 6.25C14.6663 6.25 13.708 6 13.4163 5.625C13.3747 5.70833 13.333 5.75 13.333 5.83333C13.333 6.29167 14.458 6.66667 15.833 6.66667C17.208 6.66667 18.333 6.29167 18.333 5.83333C18.333 5.75 18.2913 5.70833 18.2497 5.625C17.958 6 16.9997 6.25 15.833 6.25ZM15.833 7.5C14.6663 7.5 13.708 7.25 13.4163 6.875C13.3747 6.95833 13.333 7 13.333 7.08333C13.333 7.54167 14.458 7.91667 15.833 7.91667C17.208 7.91667 18.333 7.54167 18.333 7.08333C18.333 7 18.2913 6.95833 18.2497 6.875C17.958 7.25 16.9997 7.5 15.833 7.5ZM15.833 8.75C14.6663 8.75 13.708 8.5 13.4163 8.125C13.3747 8.20833 13.333 8.25 13.333 8.33333C13.333 8.79167 14.458 9.16667 15.833 9.16667C17.208 9.16667 18.333 8.79167 18.333 8.33333C18.333 8.25 18.2913 8.20833 18.2497 8.125C17.958 8.5 16.9997 8.75 15.833 8.75ZM15.833 10C14.6663 10 13.708 9.75 13.4163 9.375C13.3747 9.45833 13.333 9.5 13.333 9.58333C13.333 10.0417 14.458 10.4167 15.833 10.4167C17.208 10.4167 18.333 10.0417 18.333 9.58333C18.333 9.5 18.2913 9.45833 18.2497 9.375C17.958 9.75 16.9997 10 15.833 10ZM15.833 11.25C14.6663 11.25 13.708 11 13.4163 10.625C13.3747 10.7083 13.333 10.75 13.333 10.8333C13.333 11.2917 14.458 11.6667 15.833 11.6667C17.208 11.6667 18.333 11.2917 18.333 10.8333C18.333 10.75 18.2913 10.7083 18.2497 10.625C17.958 11 16.9997 11.25 15.833 11.25ZM15.833 12.5C14.6663 12.5 13.708 12.25 13.4163 11.875C13.3747 11.9583 13.333 12 13.333 12.0833C13.333 12.5417 14.458 12.9167 15.833 12.9167C17.208 12.9167 18.333 12.5417 18.333 12.0833C18.333 12 18.2913 11.9583 18.2497 11.875C17.958 12.25 16.9997 12.5 15.833 12.5ZM15.833 13.75C14.6663 13.75 13.708 13.5 13.4163 13.125C13.3747 13.2083 13.333 13.25 13.333 13.3333C13.333 13.7917 14.458 14.1667 15.833 14.1667C17.208 14.1667 18.333 13.7917 18.333 13.3333C18.333 13.25 18.2913 13.2083 18.2497 13.125C17.958 13.5 16.9997 13.75 15.833 13.75ZM15.833 15C14.6663 15 13.708 14.75 13.4163 14.375C13.3747 14.4583 13.333 14.5 13.333 14.5833C13.333 15.0417 14.458 15.4167 15.833 15.4167C17.208 15.4167 18.333 15.0417 18.333 14.5833C18.333 14.5 18.2913 14.4583 18.2497 14.375C17.958 14.75 16.9997 15 15.833 15ZM15.833 16.25C14.6663 16.25 13.708 16 13.4163 15.625C13.3747 15.7083 13.333 15.75 13.333 15.8333C13.333 16.2917 14.458 16.6667 15.833 16.6667C17.208 16.6667 18.333 16.2917 18.333 15.8333C18.333 15.75 18.2913 15.7083 18.2497 15.625C17.958 16 16.9997 16.25 15.833 16.25Z" fill="#FFC107"/>
<path d="M4.16699 7.91665C2.79199 7.91665 1.66699 7.54165 1.66699 7.08331V7.91665C1.66699 8.37498 2.79199 8.74998 4.16699 8.74998C5.54199 8.74998 6.66699 8.37498 6.66699 7.91665V7.08331C6.66699 7.54165 5.54199 7.91665 4.16699 7.91665Z" fill="#FFA000"/>
<path d="M4.16699 6.66665C2.79199 6.66665 1.66699 6.29165 1.66699 5.83331V6.66665C1.66699 7.12498 2.79199 7.49998 4.16699 7.49998C5.54199 7.49998 6.66699 7.12498 6.66699 6.66665V5.83331C6.66699 6.29165 5.54199 6.66665 4.16699 6.66665ZM4.16699 9.16665C2.79199 9.16665 1.66699 8.79165 1.66699 8.33331V9.16665C1.66699 9.62498 2.79199 9.99998 4.16699 9.99998C5.54199 9.99998 6.66699 9.62498 6.66699 9.16665V8.33331C6.66699 8.79165 5.54199 9.16665 4.16699 9.16665Z" fill="#FFA000"/>
<path d="M4.16699 10.4166C2.79199 10.4166 1.66699 10.0416 1.66699 9.58331V10.4166C1.66699 10.875 2.79199 11.25 4.16699 11.25C5.54199 11.25 6.66699 10.875 6.66699 10.4166V9.58331C6.66699 10.0416 5.54199 10.4166 4.16699 10.4166Z" fill="#FFA000"/>
<path d="M4.16699 11.6666C2.79199 11.6666 1.66699 11.2916 1.66699 10.8333V11.6666C1.66699 12.125 2.79199 12.5 4.16699 12.5C5.54199 12.5 6.66699 12.125 6.66699 11.6666V10.8333C6.66699 11.2916 5.54199 11.6666 4.16699 11.6666Z" fill="#FFA000"/>
<path d="M4.16699 12.9166C2.79199 12.9166 1.66699 12.5416 1.66699 12.0833V12.9166C1.66699 13.375 2.79199 13.75 4.16699 13.75C5.54199 13.75 6.66699 13.375 6.66699 12.9166V12.0833C6.66699 12.5416 5.54199 12.9166 4.16699 12.9166Z" fill="#FFA000"/>
<path d="M4.16699 14.1666C2.79199 14.1666 1.66699 13.7916 1.66699 13.3333V14.1666C1.66699 14.625 2.79199 15 4.16699 15C5.54199 15 6.66699 14.625 6.66699 14.1666V13.3333C6.66699 13.7916 5.54199 14.1666 4.16699 14.1666Z" fill="#FFA000"/>
<path d="M4.16699 15.4166C2.79199 15.4166 1.66699 15.0416 1.66699 14.5833V15.4166C1.66699 15.875 2.79199 16.25 4.16699 16.25C5.54199 16.25 6.66699 15.875 6.66699 15.4166V14.5833C6.66699 15.0416 5.54199 15.4166 4.16699 15.4166Z" fill="#FFA000"/>
<path d="M4.16699 16.6666C2.79199 16.6666 1.66699 16.2916 1.66699 15.8333V16.6666C1.66699 17.125 2.79199 17.5 4.16699 17.5C5.54199 17.5 6.66699 17.125 6.66699 16.6666V15.8333C6.66699 16.2916 5.54199 16.6666 4.16699 16.6666Z" fill="#FFA000"/>
<path d="M4.16699 6.66667C5.5477 6.66667 6.66699 6.29357 6.66699 5.83333C6.66699 5.3731 5.5477 5 4.16699 5C2.78628 5 1.66699 5.3731 1.66699 5.83333C1.66699 6.29357 2.78628 6.66667 4.16699 6.66667Z" fill="#FFC107"/>
<path d="M4.16699 7.5C3.00033 7.5 2.04199 7.25 1.75033 6.875C1.70866 6.95833 1.66699 7 1.66699 7.08333C1.66699 7.54167 2.79199 7.91667 4.16699 7.91667C5.54199 7.91667 6.66699 7.54167 6.66699 7.08333C6.66699 7 6.62533 6.95833 6.58366 6.875C6.29199 7.25 5.33366 7.5 4.16699 7.5ZM4.16699 8.75C3.00033 8.75 2.04199 8.5 1.75033 8.125C1.70866 8.20833 1.66699 8.25 1.66699 8.33333C1.66699 8.79167 2.79199 9.16667 4.16699 9.16667C5.54199 9.16667 6.66699 8.79167 6.66699 8.33333C6.66699 8.25 6.62533 8.20833 6.58366 8.125C6.29199 8.5 5.33366 8.75 4.16699 8.75ZM4.16699 10C3.00033 10 2.04199 9.75 1.75033 9.375C1.70866 9.45833 1.66699 9.5 1.66699 9.58333C1.66699 10.0417 2.79199 10.4167 4.16699 10.4167C5.54199 10.4167 6.66699 10.0417 6.66699 9.58333C6.66699 9.5 6.62533 9.45833 6.58366 9.375C6.29199 9.75 5.33366 10 4.16699 10ZM4.16699 11.25C3.00033 11.25 2.04199 11 1.75033 10.625C1.70866 10.7083 1.66699 10.75 1.66699 10.8333C1.66699 11.2917 2.79199 11.6667 4.16699 11.6667C5.54199 11.6667 6.66699 11.2917 6.66699 10.8333C6.66699 10.75 6.62533 10.7083 6.58366 10.625C6.29199 11 5.33366 11.25 4.16699 11.25ZM4.16699 12.5C3.00033 12.5 2.04199 12.25 1.75033 11.875C1.70866 11.9583 1.66699 12 1.66699 12.0833C1.66699 12.5417 2.79199 12.9167 4.16699 12.9167C5.54199 12.9167 6.66699 12.5417 6.66699 12.0833C6.66699 12 6.62533 11.9583 6.58366 11.875C6.29199 12.25 5.33366 12.5 4.16699 12.5ZM4.16699 13.75C3.00033 13.75 2.04199 13.5 1.75033 13.125C1.70866 13.2083 1.66699 13.25 1.66699 13.3333C1.66699 13.7917 2.79199 14.1667 4.16699 14.1667C5.54199 14.1667 6.66699 13.7917 6.66699 13.3333C6.66699 13.25 6.62533 13.2083 6.58366 13.125C6.29199 13.5 5.33366 13.75 4.16699 13.75ZM4.16699 15C3.00033 15 2.04199 14.75 1.75033 14.375C1.70866 14.4583 1.66699 14.5 1.66699 14.5833C1.66699 15.0417 2.79199 15.4167 4.16699 15.4167C5.54199 15.4167 6.66699 15.0417 6.66699 14.5833C6.66699 14.5 6.62533 14.4583 6.58366 14.375C6.29199 14.75 5.33366 15 4.16699 15ZM4.16699 16.25C3.00033 16.25 2.04199 16 1.75033 15.625C1.70866 15.7083 1.66699 15.75 1.66699 15.8333C1.66699 16.2917 2.79199 16.6667 4.16699 16.6667C5.54199 16.6667 6.66699 16.2917 6.66699 15.8333C6.66699 15.75 6.62533 15.7083 6.58366 15.625C6.29199 16 5.33366 16.25 4.16699 16.25Z" fill="#FFC107"/>
<path d="M10 11.6666C8.625 11.6666 7.5 11.2916 7.5 10.8333V11.6666C7.5 12.125 8.625 12.5 10 12.5C11.375 12.5 12.5 12.125 12.5 11.6666V10.8333C12.5 11.2916 11.375 11.6666 10 11.6666Z" fill="#FFA000"/>
<path d="M10 10.4166C8.625 10.4166 7.5 10.0416 7.5 9.58331V10.4166C7.5 10.875 8.625 11.25 10 11.25C11.375 11.25 12.5 10.875 12.5 10.4166V9.58331C12.5 10.0416 11.375 10.4166 10 10.4166ZM10 12.9166C8.625 12.9166 7.5 12.5416 7.5 12.0833V12.9166C7.5 13.375 8.625 13.75 10 13.75C11.375 13.75 12.5 13.375 12.5 12.9166V12.0833C12.5 12.5416 11.375 12.9166 10 12.9166Z" fill="#FFA000"/>
<path d="M10 14.1666C8.625 14.1666 7.5 13.7916 7.5 13.3333V14.1666C7.5 14.625 8.625 15 10 15C11.375 15 12.5 14.625 12.5 14.1666V13.3333C12.5 13.7916 11.375 14.1666 10 14.1666Z" fill="#FFA000"/>
<path d="M10 15.4166C8.625 15.4166 7.5 15.0416 7.5 14.5833V15.4166C7.5 15.875 8.625 16.25 10 16.25C11.375 16.25 12.5 15.875 12.5 15.4166V14.5833C12.5 15.0416 11.375 15.4166 10 15.4166Z" fill="#FFA000"/>
<path d="M10 16.6666C8.625 16.6666 7.5 16.2916 7.5 15.8333V16.6666C7.5 17.125 8.625 17.5 10 17.5C11.375 17.5 12.5 17.125 12.5 16.6666V15.8333C12.5 16.2916 11.375 16.6666 10 16.6666Z" fill="#FFA000"/>
<path d="M10 10.4167C11.3807 10.4167 12.5 10.0436 12.5 9.58333C12.5 9.1231 11.3807 8.75 10 8.75C8.61929 8.75 7.5 9.1231 7.5 9.58333C7.5 10.0436 8.61929 10.4167 10 10.4167Z" fill="#FFC107"/>
<path d="M10 11.25C8.83333 11.25 7.875 11 7.58333 10.625C7.54167 10.7083 7.5 10.75 7.5 10.8333C7.5 11.2917 8.625 11.6667 10 11.6667C11.375 11.6667 12.5 11.2917 12.5 10.8333C12.5 10.75 12.4583 10.7083 12.4167 10.625C12.125 11 11.1667 11.25 10 11.25ZM10 12.5C8.83333 12.5 7.875 12.25 7.58333 11.875C7.54167 11.9583 7.5 12 7.5 12.0833C7.5 12.5417 8.625 12.9167 10 12.9167C11.375 12.9167 12.5 12.5417 12.5 12.0833C12.5 12 12.4583 11.9583 12.4167 11.875C12.125 12.25 11.1667 12.5 10 12.5ZM10 13.75C8.83333 13.75 7.875 13.5 7.58333 13.125C7.54167 13.2083 7.5 13.25 7.5 13.3333C7.5 13.7917 8.625 14.1667 10 14.1667C11.375 14.1667 12.5 13.7917 12.5 13.3333C12.5 13.25 12.4583 13.2083 12.4167 13.125C12.125 13.5 11.1667 13.75 10 13.75ZM10 15C8.83333 15 7.875 14.75 7.58333 14.375C7.54167 14.4583 7.5 14.5 7.5 14.5833C7.5 15.0417 8.625 15.4167 10 15.4167C11.375 15.4167 12.5 15.0417 12.5 14.5833C12.5 14.5 12.4583 14.4583 12.4167 14.375C12.125 14.75 11.1667 15 10 15ZM10 16.25C8.83333 16.25 7.875 16 7.58333 15.625C7.54167 15.7083 7.5 15.75 7.5 15.8333C7.5 16.2917 8.625 16.6667 10 16.6667C11.375 16.6667 12.5 16.2917 12.5 15.8333C12.5 15.75 12.4583 15.7083 12.4167 15.625C12.125 16 11.1667 16.25 10 16.25Z" fill="#FFC107"/>
</svg>
