<svg width="20" height="20" viewBox="0 0 20 20" fill="none" xmlns="http://www.w3.org/2000/svg">
<path d="M10.0003 1.66669C5.40033 1.66669 1.66699 5.40002 1.66699 10C1.66699 14.6 5.40033 18.3334 10.0003 18.3334C14.6003 18.3334 18.3337 14.6 18.3337 10C18.3337 5.40002 14.6003 1.66669 10.0003 1.66669ZM13.0087 6.95002C13.9003 6.95002 14.617 7.66669 14.617 8.55835C14.617 9.45002 13.9003 10.1667 13.0087 10.1667C12.117 10.1667 11.4003 9.45002 11.4003 8.55835C11.392 7.66669 12.117 6.95002 13.0087 6.95002ZM8.00866 5.63335C9.09199 5.63335 9.97533 6.51669 9.97533 7.60002C9.97533 8.68335 9.09199 9.56669 8.00866 9.56669C6.92532 9.56669 6.04199 8.68335 6.04199 7.60002C6.04199 6.50835 6.91699 5.63335 8.00866 5.63335ZM8.00866 13.2417V16.3667C6.00866 15.7417 4.42533 14.2 3.72533 12.2334C4.60033 11.3 6.78366 10.825 8.00866 10.825C8.45033 10.825 9.00866 10.8917 9.59199 11.0084C8.22533 11.7334 8.00866 12.6917 8.00866 13.2417ZM10.0003 16.6667C9.77533 16.6667 9.55866 16.6584 9.34199 16.6334V13.2417C9.34199 12.0584 11.792 11.4667 13.0087 11.4667C13.9003 11.4667 15.442 11.7917 16.2087 12.425C15.2337 14.9 12.8253 16.6667 10.0003 16.6667Z" fill="black"/>
</svg>
